 http://img.photobucket.com/albums/v490/happychap12345/Roy-Chubby-Brown-Too-Fat-Too-Be-Gay-Front-Cover-21542.jpg

Batten down the laughter hatches for a barn-storming night of jokes, banter and hilarious pi**-taking frommost outrageous comedian, bar none! You’ll explode with laughter as Chubby rips into his live audience with a non-stop battering ram of laugh-out-loud comedy. From motorway pile-ups to marriage counsellors, cancer-causing sausages to asylum seekers’ swimming skills, and from disabled parking to why Chubby really is too fat to be gay - this show is grab-your-guts funny !

File info :
Format : AVI
Format/Info : Audio Video Interleave
File size : 550 MiB
Duration : 1h 3mn
Overall bit rate : 1 208 Kbps


Video :
Format : MPEG-4 Visual
Format settings, BVOP : Yes
Format settings, QPel : No
Format settings, GMC : No warppoints
Format settings, Matrix : Custom
Codec ID : XVID
Codec ID/Hint : XviD
Duration : 1h 3mn
Bit rate : 1 090 Kbps
Width : 560 pixels
Height : 320 pixels
Display aspect ratio : 16/9
Frame rate : 25.000 fps
Resolution : 24 bits
Colorimetry : 4:2:0
Scan type : Progressive
Bits/(Pixel*Frame) : 0.243
Stream size : 496 MiB (90%)
Writing library : XviD 1.2.1 (UTC 2008-12-04)

Audio :
Format : MPEG Audio
Format version : Version 1
Format profile : Layer 3
Codec ID : 55
Codec ID/Hint : MP3
Duration : 1h 3mn
Bit rate mode : Variable
Bit rate : 105 Kbps
Nominal bit rate : 128 Kbps
Channel(s) : 2 channels
Sampling rate : 48.0 KHz
Resolution : 16 bits
Stream size : 47.7 MiB (9%)
Alignment : Aligned on interleaves
Interleave, duration : 24 ms (0.60 video frame)
Interleave, preload duration : 216 ms
Writing library : LAME3.98r

Enjoy,seed and say thanks.